# xmcd
#
# Track frame offsets:
# 150
# 18092
# 42710
# 67980
# 98517
# 119985
# 137729
# 154722
# 164972
# 174406
# 190130
# 209499
# 236726
# 255781
# 276320
# 299603
# 322650
# 331854
# 346908
# 357634
#
# Disc length: 4774 seconds
#
#
# Revision: 0
# Processed by: cddbd v1.5.2PL0 Copyright (c) Steve Scherf et al.
# Submitted via: FreeRIP 2.96 
#
DISCID=3412a414
DTITLE=Markus Heitz - Kinder des Judas CD2v6
DYEAR=2007
DGENRE=Speech
TTITLE0=020 Kinder des Judas
TTITLE1=021 Kinder des Judas
TTITLE2=022 Kinder des Judas
TTITLE3=023 Kinder des Judas
TTITLE4=024 Kinder des Judas
TTITLE5=025 Kinder des Judas
TTITLE6=026 Kinder des Judas
TTITLE7=027 Kinder des Judas
TTITLE8=028 Kinder des Judas
TTITLE9=029 Kinder des Judas
TTITLE10=030 Kinder des Judas
TTITLE11=031 Kinder des Judas
TTITLE12=032 Kinder des Judas
TTITLE13=033 Kinder des Judas
TTITLE14=034 Kinder des Judas
TTITLE15=035 Kinder des Judas
TTITLE16=036 Kinder des Judas
TTITLE17=037 Kinder des Judas
TTITLE18=038 Kinder des Judas
TTITLE19=CD 3 einlegen
EXTD=gelesen von Johannes Steck
EXTT0=
EXTT1=
EXTT2=
EXTT3=
EXTT4=
EXTT5=
EXTT6=
EXTT7=
EXTT8=
EXTT9=
EXTT10=
EXTT11=
EXTT12=
EXTT13=
EXTT14=
EXTT15=
EXTT16=
EXTT17=
EXTT18=
EXTT19=
PLAYORDER=
